<?xml version="1.0" encoding="UTF-8"?>
<svg height="16px" viewBox="0 0 16 16" width="16px" xmlns="http://www.w3.org/2000/svg">
    <g fill="#3d3846">
        <path d="m 8 1.660156 c -3.867188 0 -7 3.132813 -7 7 c 0 3.863282 3.132812 7 7 7 s 7 -3.136718 7 -7 c 0 -3.867187 -3.132812 -7 -7 -7 z m 0 2.5 c 1.019531 0 1.867188 0.445313 2.386719 1.265625 c 0.417969 0.660157 0.613281 1.722657 0.613281 3.289063 c 0 1.601562 -0.246094 2.699218 -0.738281 3.359375 c -0.539063 0.710937 -1.316407 1.085937 -2.261719 1.085937 c -1.019531 0 -1.867188 -0.445312 -2.382812 -1.265625 c -0.421876 -0.652343 -0.617188 -1.710937 -0.617188 -3.230469 c 0 -1.660156 0.234375 -2.746093 0.738281 -3.410156 c 0.527344 -0.710937 1.328125 -1.09375 2.261719 -1.09375 z m 0 1.359375 c -0.492188 0 -0.871094 0.289063 -1.054688 0.808594 c -0.136718 0.347656 -0.222656 1.3125 -0.222656 2.324219 c 0 1.144531 0.097656 2.035156 0.269532 2.398437 c 0.210937 0.433594 0.554687 0.664063 1.007812 0.664063 c 0.492188 0 0.859375 -0.277344 1.058594 -0.785156 c 0.132812 -0.347657 0.222656 -1.289063 0.222656 -2.253907 c 0 -1.179687 -0.101562 -2.105469 -0.273438 -2.46875 c -0.210937 -0.445312 -0.566406 -0.6875 -1.007812 -0.6875 z m 0 0"/>
        <path d="m 7.691406 0.890625 h 0.777344 c 0.121094 0 0.21875 0.078125 0.21875 0.175781 v 1.039063 c 0 0.097656 -0.097656 0.175781 -0.21875 0.175781 h -0.777344 c -0.121094 0 -0.21875 -0.078125 -0.21875 -0.175781 v -1.039063 c 0 -0.097656 0.097656 -0.175781 0.21875 -0.175781 z m 0 0"/>
        <path d="m 6.753906 0.339844 h 2.65625 c 0.253906 0 0.460938 0.1875 0.460938 0.414062 v 0.410156 c 0 0.230469 -0.207032 0.414063 -0.460938 0.414063 h -2.65625 c -0.257812 0 -0.464844 -0.183594 -0.464844 -0.414063 v -0.410156 c 0 -0.226562 0.207032 -0.414062 0.464844 -0.414062 z m 0 0"/>
        <path d="m 0.527344 7.546875 h 0.554687 c 0.15625 0 0.277344 0.121094 0.277344 0.277344 v 1.664062 c 0 0.15625 -0.121094 0.277344 -0.277344 0.277344 h -0.554687 c -0.152344 0 -0.277344 -0.121094 -0.277344 -0.277344 v -1.664062 c 0 -0.15625 0.125 -0.277344 0.277344 -0.277344 z m 0 0"/>
    </g>
</svg>
