<?xml version="1.0" encoding="UTF-8"?>
<svg height="128px" viewBox="0 0 128 128" width="128px" xmlns="http://www.w3.org/2000/svg" xmlns:xlink="http://www.w3.org/1999/xlink">
    <radialGradient id="a" cx="-51.224609" cy="232.088867" gradientTransform="matrix(0.87931 0 0 0.883334 109.042323 -142.778612)" gradientUnits="userSpaceOnUse" r="50">
        <stop offset="0" stop-color="#ffffff"/>
        <stop offset="1" stop-color="#ffffff" stop-opacity="0.094118"/>
    </radialGradient>
    <linearGradient id="b" gradientTransform="matrix(0.87931 0 0 0.883334 84.201803 -138.361944)" gradientUnits="userSpaceOnUse" x1="-23.181641" x2="-22.765625" y1="178.936523" y2="227.089844">
        <stop offset="0" stop-color="#ffffff" stop-opacity="0.52549"/>
        <stop offset="1" stop-color="#ffffff" stop-opacity="0"/>
    </linearGradient>
    <clipPath id="c">
        <rect height="128" width="128"/>
    </clipPath>
    <clipPath id="d">
        <rect height="128" width="128"/>
    </clipPath>
    <filter id="e" height="100%" width="100%" x="0%" y="0%">
        <feColorMatrix in="SourceGraphic" type="matrix" values="0 0 0 0 1 0 0 0 0 1 0 0 0 0 1 0 0 0 1 0"/>
    </filter>
    <mask id="f">
        <g clip-path="url(#d)" filter="url(#e)">
            <g clip-path="url(#c)">
                <path d="m 62.085938 7 h 3.828124 c 0.597657 0 1.085938 0.558594 1.085938 1.246094 v 7.507812 c 0 0.6875 -0.488281 1.246094 -1.085938 1.246094 h -3.828124 c -0.597657 0 -1.085938 -0.558594 -1.085938 -1.246094 v -7.507812 c 0 -0.6875 0.488281 -1.246094 1.085938 -1.246094 z m 0 0" fill="#5e5c64"/>
                <path d="m 58.066406 4 h 11.867188 c 1.140625 0 2.066406 0.75 2.066406 1.675781 v 1.648438 c 0 0.925781 -0.925781 1.675781 -2.066406 1.675781 h -11.867188 c -1.140625 0 -2.066406 -0.75 -2.066406 -1.675781 v -1.648438 c 0 -0.925781 0.925781 -1.675781 2.066406 -1.675781 z m 0 0" fill="#9a9996"/>
                <path d="m 115 65.765625 c 0 28.296875 -22.832031 51.234375 -51 51.234375 s -51 -22.9375 -51 -51.234375 c 0 -28.292969 22.832031 -51.230469 51 -51.230469 s 51 22.9375 51 51.230469 z m 0 0" fill="#9a9996"/>
                <path d="m 115 62.234375 c 0 28.292969 -22.832031 51.230469 -51 51.230469 s -51 -22.9375 -51 -51.230469 c 0 -28.296875 22.832031 -51.234375 51 -51.234375 s 51 22.9375 51 51.234375 z m 0 0" fill="#deddda"/>
                <path d="m 107.964844 62.234375 c 0 24.390625 -19.683594 44.164063 -43.964844 44.164063 s -43.964844 -19.773438 -43.964844 -44.164063 c 0 -24.394531 19.683594 -44.167969 43.964844 -44.167969 s 43.964844 19.773438 43.964844 44.167969 z m 0 0" fill="#1a5fb4"/>
                <path d="m 107.964844 62.234375 c 0 24.390625 -19.683594 44.164063 -43.964844 44.164063 s -43.964844 -19.773438 -43.964844 -44.164063 c 0 -24.394531 19.683594 -44.167969 43.964844 -44.167969 s 43.964844 19.773438 43.964844 44.167969 z m 0 0" fill="url(#a)"/>
                <path d="m 106.207031 62.234375 c 0 23.414063 -18.898437 42.398437 -42.207031 42.398437 s -42.207031 -18.984374 -42.207031 -42.398437 c 0 -23.417969 18.898437 -42.402344 42.207031 -42.402344 s 42.207031 18.984375 42.207031 42.402344 z m 0 0" fill="#3584e4"/>
                <path d="m 30.585938 44.566406 h 66.828124 c 0.972657 0 1.757813 0.792969 1.757813 1.765625 v 31.800781 c 0 0.976563 -0.785156 1.765626 -1.757813 1.765626 h -66.828124 c -0.972657 0 -1.757813 -0.789063 -1.757813 -1.765626 v -31.800781 c 0 -0.972656 0.785156 -1.765625 1.757813 -1.765625 z m 0 0" fill="#deddda"/>
                <path d="m 32.34375 46.332031 h 63.3125 c 0.96875 0 1.757812 0.792969 1.757812 1.769531 v 28.265626 c 0 0.976562 -0.789062 1.765624 -1.757812 1.765624 h -63.3125 c -0.96875 0 -1.757812 -0.789062 -1.757812 -1.765624 v -28.265626 c 0 -0.976562 0.789062 -1.769531 1.757812 -1.769531 z m 0 0"/>
                <path d="m 66.589844 48.136719 h 27.355468 c 0.945313 0 1.710938 0.789062 1.710938 1.765625 v 24.699218 c 0 0.976563 -0.765625 1.765626 -1.710938 1.765626 h -27.355468 c -0.945313 0 -1.710938 -0.789063 -1.710938 -1.765626 v -24.699218 c 0 -0.976563 0.765625 -1.765625 1.710938 -1.765625 z m 0 0" fill="#241f31"/>
                <path d="m 73.246094 48.136719 c 0.238281 3.792969 2.640625 6.34375 6.085937 6.34375 c 1.039063 0 2.019531 -0.285157 2.652344 -0.738281 c 0.375 -0.253907 0.605469 -0.507813 1.269531 -1.246094 c 0 3.882812 -1.097656 5.726562 -3.375 5.726562 c -1.441406 0 -2.390625 -0.765625 -2.476562 -1.957031 h -3.894532 c 0.085938 3.089844 2.738282 5.355469 6.257813 5.355469 c 2.621094 0 4.613281 -1.074219 5.824219 -3.117188 c 1.066406 -1.785156 1.699218 -4.816406 1.699218 -8.046875 c 0 -0.832031 -0.039062 -1.597656 -0.113281 -2.320312 h -4.046875 c -0.214844 1.855469 -1.386718 3.054687 -3.074218 3.054687 c -1.65625 0 -2.75 -1.140625 -2.960938 -3.054687 z m 0 0" fill="#ffffff"/>
                <path d="m 80.28125 66.855469 c -3.691406 0 -6.375 2.296875 -6.375 5.476562 c 0 1.878907 0.742188 3.082031 2.429688 4.035157 h 7.863281 c 0.566406 -0.316407 0.863281 -0.511719 1.144531 -0.773438 c 0.8125 -0.765625 1.289062 -1.984375 1.289062 -3.289062 c 0 -3.148438 -2.6875 -5.449219 -6.351562 -5.449219 z m 0.027344 3.207031 c 1.734375 0 2.9375 1.078125 2.9375 2.636719 c 0 1.535156 -1.230469 2.640625 -2.9375 2.640625 c -1.761719 0 -2.964844 -1.078125 -2.964844 -2.667969 c 0 -1.53125 1.203125 -2.609375 2.964844 -2.609375 z m 0 0" fill="#ffffff"/>
                <path d="m 34.054688 48.101562 h 27.355468 c 0.945313 0 1.710938 0.789063 1.710938 1.761719 v 24.703125 c 0 0.972656 -0.765625 1.761719 -1.710938 1.761719 h -27.355468 c -0.945313 0 -1.710938 -0.789063 -1.710938 -1.761719 v -24.703125 c 0 -0.972656 0.765625 -1.761719 1.710938 -1.761719 z m 0 0" fill="#241f31"/>
                <path d="m 47.734375 51.613281 c -2.191406 0 -4.066406 0.910157 -5.304687 2.585938 c -1.183594 1.558593 -1.730469 4.113281 -1.730469 8.03125 c 0 3.574219 0.460937 6.070312 1.441406 7.605469 c 1.210937 1.929687 3.199219 2.980468 5.59375 2.980468 c 2.21875 0 4.035156 -0.882812 5.304687 -2.554687 c 1.152344 -1.5625 1.726563 -4.144531 1.726563 -7.917969 c 0 -3.691406 -0.460937 -6.1875 -1.441406 -7.75 c -1.210938 -1.929688 -3.199219 -2.980469 -5.589844 -2.980469 z m 0 3.207031 c 1.035156 0 1.871094 0.570313 2.363281 1.617188 c 0.402344 0.851562 0.632813 3.039062 0.632813 5.820312 c 0 2.269532 -0.203125 4.484376 -0.519531 5.304688 c -0.460938 1.195312 -1.324219 1.847656 -2.476563 1.847656 c -1.066406 0 -1.875 -0.539062 -2.367187 -1.5625 c -0.402344 -0.851562 -0.632813 -2.949218 -0.632813 -5.648437 c 0 -2.382813 0.203125 -4.652344 0.519531 -5.476563 c 0.433594 -1.21875 1.324219 -1.902344 2.480469 -1.902344 z m 0 0" fill="#ffffff"/>
                <path d="m 7 54.234375 h 4 c 1.105469 0 2 0.894531 2 2 v 12 c 0 1.105469 -0.894531 2 -2 2 h -4 c -1.105469 0 -2 -0.894531 -2 -2 v -12 c 0 -1.105469 0.894531 -2 2 -2 z m 0 0" fill="#c0bfbc"/>
                <path d="m 5 59.234375 v 2 h 8 v -2 z m 0 0" fill="#77767b"/>
                <path d="m 13 56.234375 v 1 h -8 v -1 z m 0 0" fill="#5e5c64"/>
                <path d="m 5 63.234375 v 2 h 8 v -2 z m 0 0" fill="#77767b"/>
                <path d="m 13 67.234375 v 1 h -8 v -1 z m 0 0" fill="#5e5c64"/>
                <path d="m 106.207031 62.234375 c 0 23.414063 -18.898437 42.398437 -42.207031 42.398437 s -42.207031 -18.984374 -42.207031 -42.398437 c 0 -23.417969 18.898437 -42.402344 42.207031 -42.402344 s 42.207031 18.984375 42.207031 42.402344 z m 0 0" fill="url(#b)"/>
            </g>
        </g>
    </mask>
    <mask id="g">
        <g filter="url(#e)">
            <rect fill-opacity="0.8" height="128" width="128"/>
        </g>
    </mask>
    <linearGradient id="h" gradientTransform="matrix(0 0.37 -0.98462 0 295.38501 -30.360001)" gradientUnits="userSpaceOnUse" x1="300" x2="428" y1="235" y2="235">
        <stop offset="0" stop-color="#f9f06b"/>
        <stop offset="1" stop-color="#f5c211"/>
    </linearGradient>
    <clipPath id="i">
        <rect height="128" width="128"/>
    </clipPath>
    <clipPath id="j">
        <rect height="128" width="128"/>
    </clipPath>
    <path d="m 62.085938 7 h 3.828124 c 0.597657 0 1.085938 0.558594 1.085938 1.246094 v 7.507812 c 0 0.6875 -0.488281 1.246094 -1.085938 1.246094 h -3.828124 c -0.597657 0 -1.085938 -0.558594 -1.085938 -1.246094 v -7.507812 c 0 -0.6875 0.488281 -1.246094 1.085938 -1.246094 z m 0 0" fill="#5e5c64"/>
    <path d="m 58.066406 4 h 11.867188 c 1.140625 0 2.066406 0.75 2.066406 1.675781 v 1.648438 c 0 0.925781 -0.925781 1.675781 -2.066406 1.675781 h -11.867188 c -1.140625 0 -2.066406 -0.75 -2.066406 -1.675781 v -1.648438 c 0 -0.925781 0.925781 -1.675781 2.066406 -1.675781 z m 0 0" fill="#9a9996"/>
    <path d="m 115 65.765625 c 0 28.296875 -22.832031 51.234375 -51 51.234375 s -51 -22.9375 -51 -51.234375 c 0 -28.292969 22.832031 -51.230469 51 -51.230469 s 51 22.9375 51 51.230469 z m 0 0" fill="#9a9996"/>
    <path d="m 115 62.234375 c 0 28.292969 -22.832031 51.230469 -51 51.230469 s -51 -22.9375 -51 -51.230469 c 0 -28.296875 22.832031 -51.234375 51 -51.234375 s 51 22.9375 51 51.234375 z m 0 0" fill="#deddda"/>
    <path d="m 107.964844 62.234375 c 0 24.390625 -19.683594 44.164063 -43.964844 44.164063 s -43.964844 -19.773438 -43.964844 -44.164063 c 0 -24.394531 19.683594 -44.167969 43.964844 -44.167969 s 43.964844 19.773438 43.964844 44.167969 z m 0 0" fill="#1a5fb4"/>
    <path d="m 107.964844 62.234375 c 0 24.390625 -19.683594 44.164063 -43.964844 44.164063 s -43.964844 -19.773438 -43.964844 -44.164063 c 0 -24.394531 19.683594 -44.167969 43.964844 -44.167969 s 43.964844 19.773438 43.964844 44.167969 z m 0 0" fill="url(#a)"/>
    <path d="m 106.207031 62.234375 c 0 23.414063 -18.898437 42.398437 -42.207031 42.398437 s -42.207031 -18.984374 -42.207031 -42.398437 c 0 -23.417969 18.898437 -42.402344 42.207031 -42.402344 s 42.207031 18.984375 42.207031 42.402344 z m 0 0" fill="#3584e4"/>
    <path d="m 30.585938 44.566406 h 66.828124 c 0.972657 0 1.757813 0.792969 1.757813 1.765625 v 31.800781 c 0 0.976563 -0.785156 1.765626 -1.757813 1.765626 h -66.828124 c -0.972657 0 -1.757813 -0.789063 -1.757813 -1.765626 v -31.800781 c 0 -0.972656 0.785156 -1.765625 1.757813 -1.765625 z m 0 0" fill="#deddda"/>
    <path d="m 32.34375 46.332031 h 63.3125 c 0.96875 0 1.757812 0.792969 1.757812 1.769531 v 28.265626 c 0 0.976562 -0.789062 1.765624 -1.757812 1.765624 h -63.3125 c -0.96875 0 -1.757812 -0.789062 -1.757812 -1.765624 v -28.265626 c 0 -0.976562 0.789062 -1.769531 1.757812 -1.769531 z m 0 0"/>
    <path d="m 66.589844 48.136719 h 27.355468 c 0.945313 0 1.710938 0.789062 1.710938 1.765625 v 24.699218 c 0 0.976563 -0.765625 1.765626 -1.710938 1.765626 h -27.355468 c -0.945313 0 -1.710938 -0.789063 -1.710938 -1.765626 v -24.699218 c 0 -0.976563 0.765625 -1.765625 1.710938 -1.765625 z m 0 0" fill="#241f31"/>
    <path d="m 73.246094 48.136719 c 0.238281 3.792969 2.640625 6.34375 6.085937 6.34375 c 1.039063 0 2.019531 -0.285157 2.652344 -0.738281 c 0.375 -0.253907 0.605469 -0.507813 1.269531 -1.246094 c 0 3.882812 -1.097656 5.726562 -3.375 5.726562 c -1.441406 0 -2.390625 -0.765625 -2.476562 -1.957031 h -3.894532 c 0.085938 3.089844 2.738282 5.355469 6.257813 5.355469 c 2.621094 0 4.613281 -1.074219 5.824219 -3.117188 c 1.066406 -1.785156 1.699218 -4.816406 1.699218 -8.046875 c 0 -0.832031 -0.039062 -1.597656 -0.113281 -2.320312 h -4.046875 c -0.214844 1.855469 -1.386718 3.054687 -3.074218 3.054687 c -1.65625 0 -2.75 -1.140625 -2.960938 -3.054687 z m 0 0" fill="#ffffff"/>
    <path d="m 80.28125 66.855469 c -3.691406 0 -6.375 2.296875 -6.375 5.476562 c 0 1.878907 0.742188 3.082031 2.429688 4.035157 h 7.863281 c 0.566406 -0.316407 0.863281 -0.511719 1.144531 -0.773438 c 0.8125 -0.765625 1.289062 -1.984375 1.289062 -3.289062 c 0 -3.148438 -2.6875 -5.449219 -6.351562 -5.449219 z m 0.027344 3.207031 c 1.734375 0 2.9375 1.078125 2.9375 2.636719 c 0 1.535156 -1.230469 2.640625 -2.9375 2.640625 c -1.761719 0 -2.964844 -1.078125 -2.964844 -2.667969 c 0 -1.53125 1.203125 -2.609375 2.964844 -2.609375 z m 0 0" fill="#ffffff"/>
    <path d="m 34.054688 48.101562 h 27.355468 c 0.945313 0 1.710938 0.789063 1.710938 1.761719 v 24.703125 c 0 0.972656 -0.765625 1.761719 -1.710938 1.761719 h -27.355468 c -0.945313 0 -1.710938 -0.789063 -1.710938 -1.761719 v -24.703125 c 0 -0.972656 0.765625 -1.761719 1.710938 -1.761719 z m 0 0" fill="#241f31"/>
    <path d="m 47.734375 51.613281 c -2.191406 0 -4.066406 0.910157 -5.304687 2.585938 c -1.183594 1.558593 -1.730469 4.113281 -1.730469 8.03125 c 0 3.574219 0.460937 6.070312 1.441406 7.605469 c 1.210937 1.929687 3.199219 2.980468 5.59375 2.980468 c 2.21875 0 4.035156 -0.882812 5.304687 -2.554687 c 1.152344 -1.5625 1.726563 -4.144531 1.726563 -7.917969 c 0 -3.691406 -0.460937 -6.1875 -1.441406 -7.75 c -1.210938 -1.929688 -3.199219 -2.980469 -5.589844 -2.980469 z m 0 3.207031 c 1.035156 0 1.871094 0.570313 2.363281 1.617188 c 0.402344 0.851562 0.632813 3.039062 0.632813 5.820312 c 0 2.269532 -0.203125 4.484376 -0.519531 5.304688 c -0.460938 1.195312 -1.324219 1.847656 -2.476563 1.847656 c -1.066406 0 -1.875 -0.539062 -2.367187 -1.5625 c -0.402344 -0.851562 -0.632813 -2.949218 -0.632813 -5.648437 c 0 -2.382813 0.203125 -4.652344 0.519531 -5.476563 c 0.433594 -1.21875 1.324219 -1.902344 2.480469 -1.902344 z m 0 0" fill="#ffffff"/>
    <path d="m 7 54.234375 h 4 c 1.105469 0 2 0.894531 2 2 v 12 c 0 1.105469 -0.894531 2 -2 2 h -4 c -1.105469 0 -2 -0.894531 -2 -2 v -12 c 0 -1.105469 0.894531 -2 2 -2 z m 0 0" fill="#c0bfbc"/>
    <path d="m 5 59.234375 v 2 h 8 v -2 z m 0 0" fill="#77767b"/>
    <path d="m 13 56.234375 v 1 h -8 v -1 z m 0 0" fill="#5e5c64"/>
    <path d="m 5 63.234375 v 2 h 8 v -2 z m 0 0" fill="#77767b"/>
    <path d="m 13 67.234375 v 1 h -8 v -1 z m 0 0" fill="#5e5c64"/>
    <path d="m 106.207031 62.234375 c 0 23.414063 -18.898437 42.398437 -42.207031 42.398437 s -42.207031 -18.984374 -42.207031 -42.398437 c 0 -23.417969 18.898437 -42.402344 42.207031 -42.402344 s 42.207031 18.984375 42.207031 42.402344 z m 0 0" fill="url(#b)"/>
    <g clip-path="url(#j)" mask="url(#f)">
        <g clip-path="url(#i)" mask="url(#g)">
            <path d="m 128 80.640625 v 47.359375 h -128 v -47.359375 z m 0 0" fill="url(#h)"/>
            <path d="m 13.308594 80.640625 l 47.355468 47.359375 h 21.214844 l -47.359375 -47.359375 z m 42.421875 0 l 47.363281 47.359375 h 21.214844 l -47.363282 -47.359375 z m 42.429687 0 l 29.839844 29.839844 v -21.210938 l -8.628906 -8.628906 z m -98.160156 7.90625 v 21.214844 l 18.238281 18.238281 h 21.214844 z m 0 0"/>
        </g>
    </g>
</svg>
